<svg width="95" height="95" viewBox="0 0 95 95" fill="none" xmlns="http://www.w3.org/2000/svg">
<path fill-rule="evenodd" clip-rule="evenodd" d="M47.4997 3.95825C23.4528 3.95825 3.95801 23.453 3.95801 47.4999C3.95801 71.5468 23.4528 91.0416 47.4997 91.0416C71.5465 91.0416 91.0413 71.5468 91.0413 47.4999C91.0413 23.453 71.5465 3.95825 47.4997 3.95825ZM66.373 40.1374C66.7205 39.7402 66.9851 39.2774 67.1512 38.7764C67.3172 38.2754 67.3814 37.7462 67.3399 37.2201C67.2984 36.6939 67.1522 36.1813 66.9097 35.7125C66.6672 35.2437 66.3334 34.8281 65.9279 34.4902C65.5224 34.1523 65.0535 33.8989 64.5486 33.745C64.0438 33.591 63.5132 33.5395 62.9882 33.5936C62.4631 33.6477 61.9542 33.8062 61.4914 34.0599C61.0285 34.3136 60.6211 34.6573 60.293 35.0707L43.2722 55.4918L34.4649 46.6805C33.7183 45.9595 32.7184 45.5605 31.6806 45.5695C30.6427 45.5786 29.6499 45.9949 28.916 46.7288C28.1821 47.4627 27.7658 48.4555 27.7568 49.4933C27.7478 50.5312 28.1468 51.5311 28.8678 52.2776L40.7428 64.1526C41.1317 64.5413 41.5974 64.8447 42.1101 65.0435C42.6228 65.2422 43.1712 65.332 43.7205 65.3071C44.2698 65.2821 44.8079 65.143 45.3005 64.8986C45.793 64.6541 46.2292 64.3098 46.5813 63.8874L66.373 40.1374Z" fill="currentColor"/>
</svg>
