<svg width="23" height="23" viewBox="0 0 23 23" fill="none" xmlns="http://www.w3.org/2000/svg">
<path fill-rule="evenodd" clip-rule="evenodd" d="M0.958008 11.5C2.61592 7.29292 6.70801 4.3125 11.4997 4.3125C16.2913 4.3125 20.3834 7.29292 22.0413 11.5C20.3834 15.7071 16.2913 18.6875 11.4997 18.6875C6.70801 18.6875 2.61592 15.7071 0.958008 11.5ZM19.9522 11.5C18.3709 8.27042 15.1318 6.22917 11.4997 6.22917C7.86759 6.22917 4.62842 8.27042 3.04717 11.5C4.62842 14.7296 7.85801 16.7708 11.4997 16.7708C15.1413 16.7708 18.3709 14.7296 19.9522 11.5ZM11.4997 9.10417C12.8222 9.10417 13.8955 10.1775 13.8955 11.5C13.8955 12.8225 12.8222 13.8958 11.4997 13.8958C10.1772 13.8958 9.10384 12.8225 9.10384 11.5C9.10384 10.1775 10.1772 9.10417 11.4997 9.10417ZM7.18717 11.5C7.18717 9.12333 9.12301 7.1875 11.4997 7.1875C13.8763 7.1875 15.8122 9.12333 15.8122 11.5C15.8122 13.8767 13.8763 15.8125 11.4997 15.8125C9.12301 15.8125 7.18717 13.8767 7.18717 11.5Z" fill="currentColor" fill-opacity="0.13"/>
</svg>
