<svg width="17" height="17" viewBox="0 0 17 17" fill="none" xmlns="http://www.w3.org/2000/svg">
<path fill-rule="evenodd" clip-rule="evenodd" d="M8.50033 1.4165C4.59033 1.4165 1.41699 4.58984 1.41699 8.49984C1.41699 12.4098 4.59033 15.5832 8.50033 15.5832C12.4103 15.5832 15.5837 12.4098 15.5837 8.49984C15.5837 4.58984 12.4103 1.4165 8.50033 1.4165ZM7.79199 13.4582V12.0415H9.20866V13.4582H7.79199ZM10.0374 8.62025L10.6749 7.96859C11.0787 7.56484 11.3337 6.99817 11.3337 6.37484C11.3337 4.80942 10.0657 3.5415 8.50033 3.5415C6.93491 3.5415 5.66699 4.80942 5.66699 6.37484H7.08366C7.08366 5.59567 7.72116 4.95817 8.50033 4.95817C9.27949 4.95817 9.91699 5.59567 9.91699 6.37484C9.91699 6.76442 9.76116 7.11859 9.49908 7.37359L8.62074 8.26609C8.11074 8.78317 7.79199 9.4915 7.79199 10.2707V10.6248H9.20866C9.20866 9.56234 9.52741 9.13734 10.0374 8.62025Z" fill="currentColor"/>
</svg>
