<svg width="50" height="49" viewBox="0 0 50 49" fill="none" xmlns="http://www.w3.org/2000/svg">
<path fill-rule="evenodd" clip-rule="evenodd" d="M2.54186 0.653688C1.49873 1.17094 1.15894 1.49592 0.678615 2.43612C0.181139 3.40991 0.0948977 3.88553 0.116047 5.54101C0.146831 7.96075 0.626917 9.7625 2.10501 13.0042C3.11194 15.2133 5.43624 19.2664 6.46409 20.6055C6.80929 21.0553 6.83279 21.0477 7.53541 20.2605C12.9024 14.2462 14.7524 12.4359 20.6448 7.43407C21.6532 6.57804 21.5966 6.49593 18.8669 4.86345C11.5342 0.477744 5.85217 -0.987303 2.54186 0.653688ZM40.9506 0.476134C38.9182 0.997525 36.4616 2.00144 33.8743 3.36782C31.2542 4.75168 28.5927 6.4389 28.6848 6.65785C28.7262 6.75652 30.029 7.92717 31.5799 9.25974C34.7492 11.9828 39.5717 16.7708 41.6746 19.283C42.4426 20.2002 43.1452 20.9504 43.2361 20.9504C43.5282 20.9504 45.8575 17.2352 47.2077 14.6156C49.2712 10.6119 49.9092 8.46006 49.9092 5.50329C49.9092 3.14979 49.8805 3.01041 49.2011 2.05342C48.1519 0.57595 46.8571 0.0182208 44.5133 0.0338602C43.4664 0.04099 41.8784 0.238093 40.9506 0.476134ZM22.4153 11.1967C21.1228 12.2782 18.8121 14.3718 17.2802 15.8492C14.6352 18.4003 10.0357 23.3969 9.59416 24.1988C9.08212 25.1287 19.0126 35.3068 24.2371 39.2069L25.1003 39.8514L26.3427 38.8553C29.1325 36.6186 32.6952 33.3376 35.7059 30.2322C38.0548 27.8095 40.675 24.6239 40.5549 24.3366C40.263 23.6377 36.0055 18.9449 33.1461 16.1708C29.9646 13.0838 25.4328 9.22087 25.0002 9.22709C24.8709 9.22892 23.7077 10.1153 22.4153 11.1967ZM5.78426 29.3902C3.02335 33.4779 0.863317 38.123 0.308739 41.1656C-0.0860452 43.3325 -0.0945043 43.844 0.239183 45.3758C0.579684 46.9379 1.95203 48.3707 3.5025 48.7829C6.90352 49.6865 13.1068 47.7238 19.4191 43.7468C20.4853 43.075 21.3578 42.3967 21.3578 42.2392C21.3578 42.0818 21.0001 41.7037 20.5628 41.399C19.1094 40.3857 13.9086 35.6543 12.0289 33.6354C10.598 32.0988 7.25648 28.3622 6.89529 27.8953C6.86569 27.8569 6.36563 28.5296 5.78426 29.3902ZM41.2014 30.2007C38.1822 33.6303 34.9548 36.8183 31.6941 39.5915C30.0158 41.0188 28.6425 42.2548 28.6425 42.3381C28.6425 42.5874 32.0858 44.6444 34.8712 46.0591C36.3044 46.787 38.4766 47.7146 39.6984 48.1203C41.5896 48.7482 42.2713 48.8606 44.2873 48.876C46.5248 48.8935 46.7175 48.8565 47.7907 48.2045C49.3508 47.2569 49.8857 46.1877 49.9902 43.8077C50.103 41.2438 49.2416 38.3249 47.2155 34.405C45.6093 31.2973 43.5985 28.0802 43.2622 28.0802C43.1555 28.0802 42.228 29.0344 41.2014 30.2007Z" fill="currentColor" fill-opacity="0.08"/>
</svg>
