<svg width="21" height="21" viewBox="0 0 21 21" fill="none" xmlns="http://www.w3.org/2000/svg">
<path d="M20.6881 4.31988C19.9574 4.64363 19.1726 4.86238 18.3474 4.96126C19.1988 4.45182 19.8358 3.65004 20.1394 2.70551C19.3396 3.18062 18.4641 3.51505 17.5512 3.69426C16.9373 3.03876 16.1241 2.60429 15.238 2.4583C14.3518 2.3123 13.4423 2.46295 12.6505 2.88685C11.8588 3.31076 11.2291 3.9842 10.8593 4.80262C10.4895 5.62105 10.4003 6.53866 10.6054 7.41301C8.98466 7.33163 7.39911 6.91036 5.95168 6.17655C4.50426 5.44273 3.2273 4.41277 2.20369 3.15351C1.85369 3.75726 1.65244 4.45726 1.65244 5.20276C1.65205 5.87388 1.81732 6.53472 2.13358 7.12665C2.44985 7.71858 2.90733 8.22329 3.46544 8.59601C2.81818 8.57541 2.1852 8.40052 1.61919 8.08588V8.13838C1.61912 9.07966 1.94472 9.99196 2.54072 10.7205C3.13673 11.449 3.96644 11.9489 4.88906 12.1354C4.28862 12.2979 3.65911 12.3218 3.04806 12.2054C3.30837 13.0153 3.81543 13.7235 4.49826 14.2309C5.18108 14.7384 6.00549 15.0195 6.85606 15.0351C5.41217 16.1686 3.62896 16.7835 1.79331 16.7808C1.46815 16.7808 1.14325 16.7619 0.820312 16.7239C2.6836 17.9219 4.85261 18.5577 7.06781 18.5553C14.5666 18.5553 18.6659 12.3445 18.6659 6.95801C18.6659 6.78301 18.6616 6.60626 18.6537 6.43126C19.4511 5.85461 20.1394 5.14054 20.6863 4.32251L20.6881 4.31988Z" fill="currentColor"/>
</svg>
