\<svg width="352" height="352" viewBox="0 0 352 352" fill="none" xmlns="http://www.w3.org/2000/svg">
<rect width="352" height="352" rx="87" fill="#6506FF"/>
<path fill-rule="evenodd" clip-rule="evenodd" d="M98.744 92.2946C95.1556 94.1102 93.9867 95.251 92.3344 98.5513C90.6231 101.969 90.3264 103.639 90.3992 109.45C90.5051 117.944 92.1566 124.268 97.2412 135.648C100.705 143.402 108.701 157.629 112.236 162.329C113.424 163.908 113.505 163.882 115.922 161.118C134.384 140.007 140.748 133.653 161.018 116.095C164.487 113.09 164.292 112.802 154.902 107.072C129.678 91.677 110.131 86.5344 98.744 92.2946ZM230.87 91.6713C223.879 93.5015 215.428 97.0255 206.528 101.822C197.514 106.679 188.359 112.602 188.676 113.37C188.818 113.717 193.3 117.826 198.635 122.504C209.537 132.062 226.127 148.869 233.361 157.687C236.002 160.907 238.419 163.54 238.732 163.54C239.737 163.54 247.75 150.499 252.395 141.304C259.493 127.25 261.688 119.697 261.688 109.318C261.688 101.056 261.589 100.567 259.252 97.2079C255.643 92.0217 251.188 90.064 243.126 90.1189C239.525 90.1439 234.062 90.8358 230.87 91.6713ZM167.108 129.303C162.662 133.099 154.714 140.448 149.444 145.634C140.345 154.589 124.523 172.128 123.004 174.943C121.242 178.207 155.403 213.934 173.376 227.624L176.345 229.887L180.619 226.39C190.216 218.539 202.471 207.022 212.828 196.121C220.909 187.617 229.922 176.435 229.509 175.426C228.505 172.973 213.859 156.501 204.023 146.763C193.078 135.927 177.489 122.367 176.001 122.389C175.556 122.395 171.555 125.507 167.108 129.303ZM109.898 193.166C100.4 207.514 92.9698 223.82 91.0621 234.5C89.704 242.106 89.6749 243.902 90.8228 249.278C91.9941 254.762 96.715 259.791 102.049 261.238C113.748 264.41 135.087 257.52 156.802 243.56C160.469 241.202 163.471 238.821 163.471 238.268C163.471 237.716 162.24 236.389 160.736 235.319C155.736 231.762 137.846 215.154 131.379 208.067C126.457 202.673 114.962 189.557 113.72 187.918C113.618 187.783 111.898 190.145 109.898 193.166ZM231.733 196.011C221.347 208.049 210.245 219.24 199.028 228.974C193.254 233.984 188.53 238.323 188.53 238.615C188.53 239.49 200.375 246.711 209.957 251.677C214.887 254.232 222.36 257.488 226.562 258.912C233.068 261.116 235.413 261.511 242.348 261.565C250.045 261.626 250.708 261.496 254.4 259.207C259.767 255.881 261.607 252.128 261.966 243.774C262.354 234.774 259.391 224.528 252.421 210.768C246.896 199.86 239.979 188.567 238.822 188.567C238.455 188.567 235.264 191.917 231.733 196.011Z" fill="white"/>
</svg>
