<svg width="140" height="140" viewBox="0 0 140 140" fill="none" xmlns="http://www.w3.org/2000/svg">
<path fill-rule="evenodd" clip-rule="evenodd" d="M7.1172 1.86768C4.19645 3.34554 3.24502 4.27405 1.90012 6.96035C0.507191 9.74259 0.265714 11.1015 0.324931 15.8315C0.411126 22.745 1.75537 27.8929 5.89402 37.155C8.71344 43.4666 15.2215 55.047 18.0994 58.8727C19.066 60.1581 19.1318 60.1364 21.0991 57.8871C36.1266 40.7034 41.3068 35.5312 57.8055 21.2402C60.6289 18.7944 60.4703 18.5598 52.8273 13.8956C32.2959 1.36498 16.3861 -2.82086 7.1172 1.86768ZM114.662 1.36038C108.971 2.85007 102.092 5.71839 94.8482 9.62234C87.5118 13.5762 80.0595 18.3968 80.3175 19.0224C80.4333 19.3043 84.0811 22.6491 88.4237 26.4564C97.2978 34.2367 110.801 47.9166 116.689 55.0943C118.839 57.7149 120.807 59.8584 121.061 59.8584C121.879 59.8584 128.401 49.2433 132.182 41.7587C137.959 30.3196 139.746 24.1716 139.746 15.7237C139.746 8.99939 139.665 8.60117 137.763 5.8669C134.825 1.64557 131.2 0.0520595 124.637 0.0967435C121.706 0.117114 117.259 0.680265 114.662 1.36038ZM62.7627 31.9907C59.1439 35.0804 52.674 41.0622 48.3847 45.2835C40.9785 52.5723 28.1 66.8482 26.8637 69.1396C25.4299 71.7963 53.2353 100.876 67.864 112.02L70.2807 113.861L73.7594 111.015C81.5709 104.625 91.5464 95.2502 99.9764 86.3778C106.554 79.4557 113.89 70.3539 113.554 69.5332C112.736 67.5362 100.815 54.1283 92.8091 46.2022C83.9008 37.3823 71.2118 26.3454 70.0004 26.3631C69.6385 26.3684 66.3816 28.9009 62.7627 31.9907ZM16.1959 83.9721C8.46539 95.651 2.41729 108.923 0.86447 117.616C-0.240927 123.807 -0.264612 125.269 0.669711 129.645C1.62312 134.108 5.46568 138.202 9.80699 139.38C19.3299 141.961 36.6991 136.354 54.3736 124.991C57.3588 123.071 59.8018 121.133 59.8018 120.683C59.8018 120.234 58.8004 119.154 57.5759 118.283C53.5063 115.388 38.9441 101.869 33.6809 96.1012C29.6745 91.7109 20.3181 81.0347 19.3068 79.7008C19.2239 79.591 17.8238 81.5131 16.1959 83.9721ZM115.364 86.2877C106.91 96.0867 97.8735 105.195 88.7435 113.119C84.0442 117.197 80.199 120.728 80.199 120.966C80.199 121.678 89.8403 127.555 97.6393 131.597C101.652 133.677 107.735 136.327 111.155 137.486C116.451 139.28 118.36 139.602 124.004 139.646C130.27 139.696 130.809 139.59 133.814 137.727C138.182 135.02 139.68 131.965 139.973 125.165C140.289 117.839 137.876 109.5 132.203 98.2999C127.706 89.4209 122.076 80.2291 121.134 80.2291C120.836 80.2291 118.238 82.9555 115.364 86.2877Z" fill="currentColor"/>
</svg>
